<mxfile host="app.diagrams.net" modified="2023-11-24T23:08:24.253Z" agent="Mozilla/5.0 (Windows NT 10.0; Win64; x64) AppleWebKit/537.36 (KHTML, like Gecko) Chrome/119.0.0.0 Safari/537.36" version="22.1.4" etag="Jt-B9ExMNLdVKXl1e6Ll" type="github">
  <diagram name="Page-1" id="ek9qT0PK-ThIQzX-yF6M">
    <mxGraphModel>
      <root>
        <mxCell id="0" />
        <mxCell id="1" parent="0" />
      </root>
    </mxGraphModel>
  </diagram>
</mxfile>
